<?xml version="1.0" encoding="utf-8"?>
<!-- Generator: Adobe Illustrator 16.0.0, SVG Export Plug-In . SVG Version: 6.00 Build 0)  -->
<!DOCTYPE svg PUBLIC "-//W3C//DTD SVG 1.1//EN" "http://www.w3.org/Graphics/SVG/1.1/DTD/svg11.dtd">
<svg version="1.1" id="Layer_1" xmlns="http://www.w3.org/2000/svg" xmlns:xlink="http://www.w3.org/1999/xlink" x="0px" y="0px"
	 width="407.333px" height="82.045px" viewBox="0 0 407.333 82.045" enable-background="new 0 0 407.333 82.045"
	 xml:space="preserve">
<polygon fill="#944031" points="58.081,12.194 40.527,37.011 40.525,37.013 40.525,72.622 75.639,52.354 75.639,18.485 "/>
<path fill="#7F1416" d="M58.081,12.194l-2.648-0.815L38.239,35.692l-20.876-12.05v-0.002c0,0-1.79-0.748-1.79,1.511
	c0,2.025-0.446,3.469,1.787,4.775l5.041,2.907c0.206,0.121,0.278,0.388,0.16,0.593c-0.082,0.14-0.228,0.219-0.379,0.219
	c-0.073,0-0.15-0.017-0.217-0.058l-1.954-1.128L8.652,25.968c0,0-1.791-0.769-1.791,1.555c0,2.085-0.446,3.573,1.786,4.915
	c3.073,1.748,7.912,4.453,11.36,6.429c1.446,0.829,2.393,1.374,2.393,1.374c0.206,0.121,0.278,0.388,0.16,0.595
	c-0.082,0.14-0.228,0.217-0.379,0.217c-0.073,0-0.15-0.017-0.217-0.061L7.208,32.476l-0.004,0.002c0,0-1.791-0.769-1.791,1.555
	c0,2.085-0.446,3.572,1.786,4.915c5.091,2.897,5.09,2.9,15.198,8.7c0.209,0.125,0.282,0.391,0.162,0.598
	c-0.082,0.14-0.229,0.217-0.379,0.217c-0.075,0-0.149-0.017-0.217-0.056L7.926,40.303c0,0-1.791-0.769-1.791,1.555
	c0,2.085-0.446,3.572,1.786,4.915l0.008,0.007c8.343,4.746,7.607,4.339,14.467,8.278c0.209,0.121,0.282,0.388,0.162,0.593
	c-0.082,0.143-0.229,0.222-0.379,0.222c-0.075,0-0.149-0.022-0.217-0.058l-10.871-6.104v-0.007c0,0-1.79-0.73-1.79,1.478
	c0,1.977-0.446,3.39,1.786,4.665l29.437,16.775V37.018L58.081,12.194z"/>
<rect x="86.333" y="37.379" fill="none" width="292" height="31.029"/>
<text transform="matrix(1 0 0 1 86.3335 51.0586)" fill="#7F1416" font-family="'Verdana'" font-size="18">ShelterCluster.org</text>
<text transform="matrix(1.0456 0 0 1 86.333 68.481)" fill="#58595B" font-family="'Verdana'" font-size="16">Coordinating Humanitarian Shelter</text>
<rect x="85.334" y="13.35" fill="none" width="317.333" height="31.029"/>
<text transform="matrix(1 0 0 1 85.334 29.3096)" fill="#7F1416" font-family="'Verdana'" font-size="21" font-weight="700">Shelter Cluster Madagascar</text>
</svg>